<?xml version="1.0" encoding="UTF-8"?>
<!DOCTYPE svg PUBLIC "-//W3C//DTD SVG 1.1//EN" "http://www.w3.org/Graphics/SVG/1.1/DTD/svg11.dtd">
<!-- Creator: CorelDRAW X7 -->
<svg xmlns="http://www.w3.org/2000/svg" xml:space="preserve" width="79.6433mm" height="56.7993mm" version="1.1" style="shape-rendering:geometricPrecision; text-rendering:geometricPrecision; image-rendering:optimizeQuality; fill-rule:evenodd; clip-rule:evenodd"
viewBox="0 0 8764 6250"
 xmlns:xlink="http://www.w3.org/1999/xlink">
 <defs>
  <style type="text/css">
   <![CDATA[
    .fil0 {fill:#043F5F;fill-rule:nonzero}
    .fil1 {fill:#F8AC25;fill-rule:nonzero}
   ]]>
  </style>
 </defs>
 <g id="Layer_x0020_1">
  <metadata id="CorelCorpID_0Corel-Layer"/>
  <path class="fil0" d="M7379 5297l0 943 297 0 -30 -722 13 -3 284 725 257 0 280 -725 13 3 -30 722 301 0 0 -943 -488 0 -200 592 -13 0 -214 -592 -470 0zm-1198 0l383 686c-20,50 -36,63 -130,63 -43,0 -73,-3 -100,-10l0 204c47,7 90,10 150,10 157,0 257,-60 347,-211l434 -742 -344 0 -193 405 -13 0 -198 -405 -336 0zm-100 0l-301 0 0 943 301 0 0 -943zm-1112 204l204 0c116,0 136,34 136,131 0,123 -23,140 -136,140l-204 0 0 -271zm0 478l264 0c313,0 383,-83 383,-351 0,-243 -103,-331 -383,-331l-561 0 0 943 297 0 0 -261zm-828 -83l-273 0 133 -411 4 0 136 411zm64 180l57 164 303 0 -340 -943 -454 0 -334 943 311 0 53 -164 404 0zm-1505 -227l233 0c97,0 131,10 131,90 0,74 -40,94 -137,94l-227 0 0 -184zm0 -348l250 0c80,0 97,27 97,84 0,73 -27,90 -130,90l-217 0 0 -174zm-297 739l594 0c237,0 364,-33 364,-264 0,-117 -27,-200 -194,-211l0 -10c150,-20 177,-97 177,-217 0,-207 -130,-241 -354,-241l-587 0 0 943zm-871 -943l-297 0 0 943 297 0 0 -371 90 0 314 371 370 0 -427 -481 394 -462 -361 0 -290 355 -90 0 0 -355zm-824 599l-277 0 136 -411 4 0 137 411zm60 180l56 164 307 0 -340 -943 -454 0 -337 943 310 0 57 -164 401 0z"/>
  <polygon class="fil0" points="2506,4141 6348,4141 6348,294 2506,294 "/>
  <path class="fil1" d="M7489 4215l0 0c-111,100 -357,280 -835,334 -193,23 -397,33 -590,33 -271,0 -528,-20 -744,-47 -100,-13 -187,-30 -264,-43 120,50 287,117 477,184 387,137 868,274 1232,274 33,0 70,0 103,-3l-3 0 3 0c327,-27 497,-194 584,-368 84,-170 93,-347 93,-415 -13,10 -30,27 -56,51zm-1489 257c57,0 114,-3 174,-7 -7,-10 -14,-16 -24,-30 -93,-127 -326,-454 -537,-845 -210,-388 -397,-833 -397,-1207l0 -17c7,-418 70,-819 147,-1136 40,-157 80,-294 120,-401 40,-107 77,-187 107,-228 40,-60 100,-177 100,-310 0,-50 -10,-101 -30,-154 -23,-50 -53,-84 -90,-107 -37,-20 -84,-30 -134,-30 -123,0 -286,53 -474,110 -170,54 -544,251 -937,525 -391,274 -805,625 -1062,989 -504,719 -764,1204 -850,2320 79,-67 330,-251 694,-288 36,-6 76,-6 116,-6 424,0 911,220 1205,354 297,130 1098,468 1872,468z"/>
 </g>
</svg>
