<?xml version="1.0" encoding="UTF-8"?>
<!DOCTYPE svg PUBLIC "-//W3C//DTD SVG 1.1//EN" "http://www.w3.org/Graphics/SVG/1.1/DTD/svg11.dtd">
<!-- Creator: CorelDRAW X7 -->
<svg xmlns="http://www.w3.org/2000/svg" xml:space="preserve" width="75.4813mm" height="8.6424mm" version="1.1" style="shape-rendering:geometricPrecision; text-rendering:geometricPrecision; image-rendering:optimizeQuality; fill-rule:evenodd; clip-rule:evenodd"
viewBox="0 0 6346 727"
 xmlns:xlink="http://www.w3.org/1999/xlink">
 <defs>
  <style type="text/css">
   <![CDATA[
    .fil0 {fill:#043F5F;fill-rule:nonzero}
   ]]>
  </style>
 </defs>
 <g id="Layer_x0020_1">
  <metadata id="CorelCorpID_0Corel-Layer"/>
  <path class="fil0" d="M555 594l43 123 220 0 -246 -717 -329 0 -243 717 225 0 40 -123 290 0zm-44 -139l-200 0 99 -312 2 0 99 312zm599 -455l-216 0 0 717 216 0 0 -281 65 0 225 281 268 0 -309 -365 286 -352 -262 0 -208 270 -65 0 0 -270zm955 552l-2 0 -175 -552 -220 0 229 717 338 0 236 -717 -223 0 -183 552zm935 42l42 123 220 0 -246 -717 -329 0 -243 717 225 0 40 -123 291 0zm-45 -139l-200 0 99 -312 2 0 99 312zm599 54l167 0c65,0 89,35 89,90l0 118 216 0 0 -144c0,-82 -48,-119 -146,-127l0 -8c129,-28 146,-78 146,-224 0,-166 -83,-214 -271,-214l-417 0 0 717 216 0 0 -208zm0 -352l167 0c72,0 89,19 89,83 0,89 -4,112 -89,112l-167 0 0 -195zm810 -157l-216 0 0 717 216 0 0 -717zm141 0l0 478c0,172 46,249 349,249 287,0 349,-74 349,-249l0 -478 -216 0 0 466c0,79 -41,94 -133,94 -92,0 -133,-15 -133,-94l0 -466 -216 0zm838 0l0 717 217 0 -22 -550 10 -2 204 552 187 0 203 -552 10 2 -22 550 216 0 0 -717 -351 0 -147 450 -8 0 -154 -450 -343 0z"/>
 </g>
</svg>
