<?xml version="1.0" encoding="UTF-8"?>
<!DOCTYPE svg PUBLIC "-//W3C//DTD SVG 1.1//EN" "http://www.w3.org/Graphics/SVG/1.1/DTD/svg11.dtd">
<!-- Creator: CorelDRAW X7 -->
<svg xmlns="http://www.w3.org/2000/svg" xml:space="preserve" width="49.3732mm" height="44.9851mm" version="1.1" style="shape-rendering:geometricPrecision; text-rendering:geometricPrecision; image-rendering:optimizeQuality; fill-rule:evenodd; clip-rule:evenodd"
viewBox="0 0 7174 6536"
 xmlns:xlink="http://www.w3.org/1999/xlink">
 <defs>
  <style type="text/css">
   <![CDATA[
    .fil0 {fill:#043F5F;fill-rule:nonzero}
    .fil1 {fill:#F8AC25;fill-rule:nonzero}
   ]]>
  </style>
 </defs>
 <g id="Layer_x0020_1">
  <metadata id="CorelCorpID_0Corel-Layer"/>
  <polygon class="fil0" points="520,5468 5592,5468 5592,388 520,388 "/>
  <path class="fil1" d="M7099 5565l0 0c-146,132 -472,371 -1102,441 -256,31 -524,45 -780,45 -357,0 -696,-27 -982,-62 -132,-18 -247,-40 -348,-58 158,67 378,155 629,243 512,181 1146,362 1627,362 44,0 92,0 136,-4l-4 0 4 0c432,-36 657,-256 772,-486 110,-225 123,-459 123,-547 -18,13 -40,35 -75,66zm-1965 340c74,0 149,-4 229,-9 -9,-13 -18,-22 -31,-40 -124,-168 -432,-600 -709,-1116 -278,-512 -525,-1099 -525,-1593l0 -23c9,-551 93,-1081 194,-1500 53,-207 106,-388 159,-530 52,-141 101,-247 141,-300 52,-79 132,-233 132,-410 0,-66 -13,-133 -40,-203 -31,-67 -70,-111 -119,-141 -49,-27 -110,-40 -176,-40 -163,0 -379,70 -626,146 -225,70 -718,331 -1238,692 -516,362 -1062,826 -1402,1307 -665,949 -1009,1589 -1123,3063 105,-89 436,-331 917,-380 48,-9 101,-9 154,-9 559,0 1202,292 1591,468 392,172 1449,618 2472,618z"/>
 </g>
</svg>
