<?xml version="1.0" encoding="utf-8"?>
<!-- Generator: Adobe Illustrator 19.2.1, SVG Export Plug-In . SVG Version: 6.00 Build 0)  -->
<svg version="1.1" id="Ñëîé_1" xmlns="http://www.w3.org/2000/svg" xmlns:xlink="http://www.w3.org/1999/xlink" x="0px" y="0px"
	 viewBox="0 0 99.2 88.3" style="enable-background:new 0 0 99.2 88.3;" xml:space="preserve">
<style type="text/css">
	.st0{fill:#00385C;}
	.st1{fill:#F7AA14;}
</style>
<path class="st0" d="M11.2,71.9l0.6,1.7h3.3l-3.6-10H6.6L3,73.7h3.3l0.6-1.7H11.2z M10.6,70H7.6l1.5-4.4h0L10.6,70z M19.3,63.7h-3.2
	v10h3.2v-3.9h1l3.3,3.9h3.9L23,68.6l4.2-4.9h-3.8l-3.1,3.8h-1V63.7z M28.6,73.7h6.3c2.5,0,3.9-0.4,3.9-2.8c0-1.2-0.3-2.1-2.1-2.2
	v-0.1c1.6-0.2,1.9-1,1.9-2.3c0-2.2-1.4-2.6-3.8-2.6h-6.2V73.7z M31.7,65.8h2.7c0.9,0,1,0.3,1,0.9c0,0.8-0.3,1-1.4,1h-2.3V65.8z
	 M31.7,69.5h2.5c1,0,1.4,0.1,1.4,1c0,0.8-0.4,1-1.5,1h-2.4V69.5z M47.7,71.9l0.6,1.7h3.2l-3.6-10h-4.8l-3.5,10h3.3l0.6-1.7H47.7z
	 M47.1,70h-2.9l1.4-4.4h0L47.1,70z M55.8,70.9h2.8c3.3,0,4.1-0.9,4.1-3.7c0-2.6-1.1-3.5-4.1-3.5h-6v10h3.2V70.9z M55.8,65.8H58
	c1.2,0,1.5,0.4,1.5,1.4c0,1.3-0.2,1.5-1.5,1.5h-2.2V65.8z M67.7,63.7h-3.2v10h3.2V63.7z M68.7,63.7l4.1,7.3
	c-0.2,0.5-0.4,0.7-1.4,0.7c-0.5,0-0.8,0-1.1-0.1v2.2c0.5,0.1,1,0.1,1.6,0.1c1.7,0,2.7-0.6,3.7-2.2l4.6-7.9h-3.7L74.5,68h-0.1
	l-2.1-4.3H68.7z M81.5,63.7v10h3.2L84.3,66l0.1,0l3,7.7h2.7l3-7.7l0.1,0L93,73.7h3.2v-10H91L88.9,70h-0.1l-2.3-6.3H81.5z"/>
<path class="st0" d="M15.2,78h-0.9v3.9h0.9v-1.5c0.1,0.1,0.4,0.4,0.8,0.4h0.9c0.8,0,1.2-0.5,1.2-1.1v-0.6c0-0.7-0.4-1.1-1.2-1.1H16
	c-0.4,0-0.6,0.2-0.8,0.3V78z M17.2,79.6c0,0.4-0.2,0.5-0.7,0.5h-0.7c-0.4,0-0.6-0.2-0.6-0.5v-0.4c0-0.4,0.2-0.5,0.6-0.5h0.7
	c0.5,0,0.7,0.2,0.7,0.5V79.6z M21.2,79.1h-1.9c0-0.2,0.1-0.5,0.5-0.5h0.9C21.1,78.6,21.2,78.8,21.2,79.1L21.2,79.1z M22.1,79.6v-0.5
	c0-0.5-0.3-1.1-1.2-1.1h-1.3c-0.9,0-1.2,0.5-1.2,1v0.7c0,0.6,0.4,1.1,1.1,1.1h1.4c0.9,0,1.2-0.4,1.2-0.9h-0.9c0,0.2-0.1,0.3-0.4,0.3
	h-1.1c-0.4,0-0.5-0.2-0.5-0.5v-0.1H22.1z M23.4,78h-0.9v2.8h0.9v-1.2h0.4l1,1.2h1.1l-1.4-1.5l1.3-1.3h-1l-1,1h-0.4V78z M26.5,78v1.5
	c0,0.6-0.1,0.6-0.6,0.6v0.6h0.4c0.7,0,1.1-0.4,1.1-1.2v-1h1.5v2.1h0.9V78H26.5z M31.4,78.8v-0.1c0-0.1,0.1-0.1,0.4-0.1h1
	c0.4,0,0.5,0.1,0.5,0.4v0.4C33.1,79.1,33,79,32.7,79h-1.1c-0.9,0-1.1,0.3-1.1,0.7v0.3c0,0.5,0.4,0.7,0.9,0.7h1.2
	c0.4,0,0.4-0.1,0.6-0.3v0.3h0.9V79c0-0.6-0.3-1-1.2-1h-1.4c-0.9,0-1.1,0.4-1.1,0.8H31.4z M31.8,79.6h1c0.4,0,0.5,0.1,0.5,0.3
	c0,0.2-0.1,0.3-0.5,0.3h-1c-0.4,0-0.5-0.1-0.5-0.3C31.4,79.6,31.5,79.6,31.8,79.6L31.8,79.6z M34.9,78v2.8h0.9v-2.1h0.1l0.9,2.1h1
	l0.9-2.1h0.1v2.1h0.8V78h-1.4l-0.9,2.1h-0.1L36.3,78H34.9z M41.2,78h-0.9v2.8h0.9v-1.2H43v1.2H44V78H43v0.9h-1.9V78z M47.2,79.1
	h-1.9c0-0.2,0.1-0.5,0.5-0.5h0.8C47.1,78.6,47.2,78.8,47.2,79.1L47.2,79.1z M48.1,79.6v-0.5c0-0.5-0.3-1.1-1.2-1.1h-1.3
	c-0.8,0-1.2,0.5-1.2,1v0.7c0,0.6,0.4,1.1,1.1,1.1h1.4c0.9,0,1.2-0.4,1.2-0.9h-0.9c0,0.2-0.1,0.3-0.4,0.3h-1.1
	c-0.4,0-0.5-0.2-0.5-0.5v-0.1H48.1z M51.4,78.8v-0.1c0-0.1,0.1-0.1,0.4-0.1h1c0.4,0,0.5,0.1,0.5,0.4v0.4C53.2,79.1,53,79,52.8,79
	h-1.1c-0.9,0-1.1,0.3-1.1,0.7v0.3c0,0.5,0.4,0.7,1,0.7h1.2c0.4,0,0.4-0.1,0.6-0.3v0.3h0.9V79c0-0.6-0.3-1-1.2-1h-1.4
	c-0.9,0-1.1,0.4-1.1,0.8H51.4z M51.9,79.6h1c0.4,0,0.5,0.1,0.5,0.3c0,0.2-0.1,0.3-0.5,0.3h-1c-0.4,0-0.5-0.1-0.5-0.3
	C51.4,79.6,51.6,79.6,51.9,79.6L51.9,79.6z M54.8,78v2.8h1v-2.1h1.8V78H54.8z M60.6,79.1h-1.8c0-0.2,0.1-0.5,0.5-0.5h0.9
	C60.5,78.6,60.6,78.8,60.6,79.1L60.6,79.1z M61.6,79.6v-0.5c0-0.5-0.3-1.1-1.2-1.1H59c-0.8,0-1.2,0.5-1.2,1v0.7
	c0,0.6,0.4,1.1,1.2,1.1h1.4c0.9,0,1.2-0.4,1.2-0.9h-0.9c0,0.2-0.1,0.3-0.3,0.3h-1.1c-0.4,0-0.4-0.2-0.4-0.5v-0.1H61.6z M62.9,78h-1
	v2.8h1v-1.2h1.8v1.2h1V78h-1v0.9h-1.8V78z M67.5,80.8h1v-2.1h1.3V78h-3.6v0.6h1.3V80.8z M73.8,79c0-0.7-0.4-1-1.3-1h-1.3
	c-0.7,0-1.1,0.4-1.1,1.1v0.7c0,0.6,0.4,1,1.1,1h1.3c1,0,1.2-0.3,1.2-1h-1c0,0.3,0,0.4-0.4,0.4h-0.9c-0.3,0-0.5-0.2-0.5-0.5v-0.5
	c0-0.4,0.2-0.5,0.5-0.5h0.9c0.3,0,0.4,0.1,0.4,0.3H73.8z M75.5,80.8h0.9v-2.1h1.3V78h-3.6v0.6h1.3V80.8z M78.1,80.8h2.4
	c0.7,0,1.1-0.2,1.1-0.7c0-0.4-0.1-0.6-0.4-0.6c0.2-0.1,0.4-0.3,0.4-0.6c0-0.5-0.3-0.8-1.1-0.8h-2.3V80.8z M79,79.6h1.4
	c0.3,0,0.4,0.1,0.4,0.3c0,0.2-0.2,0.3-0.4,0.3H79V79.6z M79,78.6h1.4c0.2,0,0.3,0.1,0.3,0.2c0,0.1,0,0.3-0.3,0.3H79V78.6z M83.3,78
	c-0.8,0-1.2,0.5-1.2,1.1v0.6c0,0.6,0.5,1.1,1.2,1.1h1.3c0.8,0,1.2-0.4,1.2-1.1v-0.6c0-0.6-0.4-1.1-1.2-1.1H83.3z M84.9,79.2v0.5
	c0,0.4-0.2,0.5-0.6,0.5h-0.6c-0.5,0-0.6-0.1-0.6-0.5v-0.5c0-0.4,0.2-0.5,0.6-0.5h0.6C84.7,78.7,84.9,78.9,84.9,79.2L84.9,79.2z"/>
<rect x="29.7" y="10.6" class="st0" width="40.8" height="40.8"/>
<path class="st1" d="M66.8,54.9c0.6,0,1.2,0,1.8-0.1c-0.1-0.1-0.1-0.2-0.2-0.3c-1-1.3-3.5-4.8-5.7-9l0,0l0,0
	c-2.2-4.1-4.2-8.8-4.2-12.8l0,0l0,0l0,0v-0.2l0,0c0.1-4.4,0.7-8.7,1.6-12.1c0.4-1.7,0.8-3.1,1.3-4.3l0,0c0.4-1.1,0.8-2,1.1-2.4l0,0
	l0,0c0.4-0.6,1.1-1.9,1.1-3.3c0-0.5-0.1-1.1-0.3-1.6c-0.3-0.5-0.6-0.9-1-1.1l0,0l0,0c-0.4-0.2-0.9-0.3-1.4-0.3c-1.3,0-3.1,0.6-5,1.2
	l0,0c-1.8,0.6-5.8,2.7-10,5.6c-4.2,2.9-8.6,6.6-11.3,10.5c-5.4,7.6-8.1,12.8-9,24.6c0.8-0.7,3.5-2.7,7.4-3l0,0
	c0.4-0.1,0.8-0.1,1.2-0.1l0,0l0,0l0,0c4.5,0,9.7,2.3,12.8,3.8l0,0l0,0C50.1,51.3,58.6,54.9,66.8,54.9L66.8,54.9z M82.6,52.2
	L82.6,52.2c-1.2,1.1-3.8,3-8.9,3.5c-2.1,0.3-4.2,0.4-6.3,0.4c-2.9,0-5.6-0.2-7.9-0.5c-1.1-0.1-2-0.3-2.8-0.5
	c1.3,0.5,3.1,1.2,5.1,1.9l0,0C66,58.5,71.1,60,74.9,60c0.4,0,0.7,0,1.1,0h0h0l0,0c3.5-0.3,5.3-2.1,6.2-3.9l0,0c0.9-1.8,1-3.7,1-4.4
	C83.1,51.8,82.9,51.9,82.6,52.2L82.6,52.2z"/>
</svg>
